<svg xmlns="http://www.w3.org/2000/svg" viewBox="0 0 120 120" fill="none"><defs><linearGradient id="b" x1="9" y1="8" x2="109" y2="115" gradientUnits="userSpaceOnUse"><stop stop-color="#79E7E3"/><stop offset="1" stop-color="#8B8BFF"/></linearGradient><linearGradient id="s" x1="43" y1="45" x2="77" y2="113" gradientUnits="userSpaceOnUse"><stop stop-color="#344876"/><stop offset="1" stop-color="#172440"/></linearGradient></defs><rect width="120" height="120" rx="60" fill="url(#b)"/><circle cx="25" cy="28" r="3" fill="#fff" fill-opacity=".75"/><circle cx="96" cy="32" r="2" fill="#fff" fill-opacity=".7"/><path d="M19 112c5-22 19-34 41-34s36 12 41 34" fill="url(#s)"/><path d="M44 77c4 5 9 8 16 8s12-3 16-8l7 8c-6 12-14 18-23 18s-17-6-23-18l7-8Z" fill="#fff" fill-opacity=".88"/><path d="M40 47c0-17 8-26 20-26s20 9 20 26v12c0 16-8 25-20 25S40 75 40 59V47Z" fill="#F4C7A9"/><path d="M39 52c-5-23 5-34 22-34 16 0 24 10 21 32-3-8-8-13-14-16-7 9-17 13-29 13v5Z" fill="#30243B"/><path d="M52 55h1m14 0h1" stroke="#583C4A" stroke-width="3" stroke-linecap="round"/><path d="M54 67c4 4 8 4 12 0" stroke="#BC6471" stroke-width="2.5" stroke-linecap="round"/><path d="M31 112c4-12 12-20 22-24l7 9 7-9c10 4 18 12 22 24" fill="#F3F7FF"/></svg>
